<?xml version="1.0" encoding="utf-8"?>
<!-- Generator: Adobe Illustrator 16.0.0, SVG Export Plug-In . SVG Version: 6.00 Build 0)  -->
<!DOCTYPE svg PUBLIC "-//W3C//DTD SVG 1.0//EN" "http://www.w3.org/TR/2001/REC-SVG-20010904/DTD/svg10.dtd">
<svg version="1.0" id="Layer_1" xmlns="http://www.w3.org/2000/svg" xmlns:xlink="http://www.w3.org/1999/xlink" x="0px" y="0px"
	 width="708.66px" height="708.66px" viewBox="0 0 708.66 708.66" enable-background="new 0 0 708.66 708.66" xml:space="preserve">
<g>
	<path fill="none" stroke="#373431" stroke-width="12" stroke-linecap="round" stroke-linejoin="round" stroke-miterlimit="10" d="
		M190.575,172.801c50.427,50.134,80.016,112.951,89.465,178.111c-42.908-21.289-78.65-57.287-98.449-104.785v77.881l-91.418,15.234
		l53.82,75L88.586,469.32c52.6-21.631,109.093-20.068,157.849,0l-29.944,71.838c45.116-18.567,91.894-27.234,137.865-27.234h-0.024
		c45.971,0,92.736,8.667,137.877,27.234l-29.955-71.838c48.778-20.068,105.248-21.631,157.836,0l-55.396-55.078l53.808-75
		l-91.405-15.234v-77.881c-19.824,47.51-55.578,83.52-98.485,104.809c9.436-65.173,39.025-128.002,89.452-178.136l-96.85,39.868
		l-66.894-106.383l-66.883,106.383L190.575,172.801z"/>
	<path fill="none" stroke="#373431" stroke-width="12" stroke-linecap="round" stroke-linejoin="round" stroke-miterlimit="10" d="
		M354.343,448.007l-172.752-71.13L354.343,448.007z"/>
	<path fill="none" stroke="#373431" stroke-width="12" stroke-linecap="round" stroke-linejoin="round" stroke-miterlimit="10" d="
		M527.096,376.877l-172.753,71.13L527.096,376.877z"/>
	<path fill="none" stroke="#373431" stroke-width="12" stroke-linecap="round" stroke-linejoin="round" stroke-miterlimit="10" d="
		M302.708,637.788c31.921-31.677,51.647-75.476,51.647-123.889V227.085v286.814C354.355,562.313,334.629,606.111,302.708,637.788z"
		/>
</g>
</svg>
