<?xml version="1.0" encoding="utf-8"?>
<!-- Generator: Adobe Illustrator 16.0.0, SVG Export Plug-In . SVG Version: 6.00 Build 0)  -->
<!DOCTYPE svg PUBLIC "-//W3C//DTD SVG 1.0//EN" "http://www.w3.org/TR/2001/REC-SVG-20010904/DTD/svg10.dtd">
<svg version="1.0" id="Layer_1" xmlns="http://www.w3.org/2000/svg" xmlns:xlink="http://www.w3.org/1999/xlink" x="0px" y="0px"
	 width="708.66px" height="708.66px" viewBox="0 0 708.66 708.66" enable-background="new 0 0 708.66 708.66" xml:space="preserve">
<g>
	<path fill="none" stroke="#373431" stroke-width="12" stroke-linecap="round" stroke-linejoin="round" stroke-miterlimit="10" d="
		M354.324,53.156v602.362V53.156z"/>
	<path fill="none" stroke="#373431" stroke-width="12" stroke-linecap="round" stroke-linejoin="round" stroke-miterlimit="10" d="
		M367.74,463.707l42.725-10.986L367.74,463.707z"/>
	<path fill="none" stroke="#373431" stroke-width="12" stroke-linecap="round" stroke-linejoin="round" stroke-miterlimit="10" d="
		M384.049,433.079l44.02-2.405L384.049,433.079z"/>
	<path fill="none" stroke="#373431" stroke-width="12" stroke-linecap="round" stroke-linejoin="round" stroke-miterlimit="10" d="
		M357.719,496.935l39.733-19.141L357.719,496.935z"/>
	<path fill="none" stroke="#373431" stroke-width="12" stroke-linecap="round" stroke-linejoin="round" stroke-miterlimit="10" d="
		M367.74,321.981l42.725-10.986L367.74,321.981z"/>
	<path fill="none" stroke="#373431" stroke-width="12" stroke-linecap="round" stroke-linejoin="round" stroke-miterlimit="10" d="
		M384.049,291.342l44.02-2.393L384.049,291.342z"/>
	<path fill="none" stroke="#373431" stroke-width="12" stroke-linecap="round" stroke-linejoin="round" stroke-miterlimit="10" d="
		M357.719,355.21l39.733-19.142L357.719,355.21z"/>
	<path fill="none" stroke="#373431" stroke-width="12" stroke-linecap="round" stroke-linejoin="round" stroke-miterlimit="10" d="
		M530.73,212.593c-97.438,0-176.406,79.31-176.406,177.174l0,0c0-97.864-78.98-177.174-176.418-177.174
		c97.438,0,176.418,79.31,176.418,177.174l0,0C354.324,291.903,433.293,212.593,530.73,212.593z"/>
	<path fill="none" stroke="#373431" stroke-width="12" stroke-linecap="round" stroke-linejoin="round" stroke-miterlimit="10" d="
		M340.896,321.981l-42.7-10.986L340.896,321.981z"/>
	<path fill="none" stroke="#373431" stroke-width="12" stroke-linecap="round" stroke-linejoin="round" stroke-miterlimit="10" d="
		M324.588,291.342l-44.02-2.393L324.588,291.342z"/>
	<path fill="none" stroke="#373431" stroke-width="12" stroke-linecap="round" stroke-linejoin="round" stroke-miterlimit="10" d="
		M350.932,355.21l-39.747-19.142L350.932,355.21z"/>
	<path fill="none" stroke="#373431" stroke-width="12" stroke-linecap="round" stroke-linejoin="round" stroke-miterlimit="10" d="
		M340.896,463.707l-42.7-10.986L340.896,463.707z"/>
	<path fill="none" stroke="#373431" stroke-width="12" stroke-linecap="round" stroke-linejoin="round" stroke-miterlimit="10" d="
		M324.588,433.079l-44.02-2.405L324.588,433.079z"/>
	<path fill="none" stroke="#373431" stroke-width="12" stroke-linecap="round" stroke-linejoin="round" stroke-miterlimit="10" d="
		M350.932,496.935l-39.747-19.141L350.932,496.935z"/>
	
		<polygon fill="none" stroke="#373431" stroke-width="12" stroke-linecap="round" stroke-linejoin="round" stroke-miterlimit="10" points="
		557.171,389.768 530.73,354.355 557.195,318.905 530.73,354.355 	"/>
	
		<polygon fill="none" stroke="#373431" stroke-width="12" stroke-linecap="round" stroke-linejoin="round" stroke-miterlimit="10" points="
		319.046,504.918 354.35,531.493 389.615,504.942 354.35,531.493 	"/>
	
		<polygon fill="none" stroke="#373431" stroke-width="12" stroke-linecap="round" stroke-linejoin="round" stroke-miterlimit="10" points="
		327.859,546.996 354.35,566.93 380.777,547.021 354.35,566.93 	"/>
	
		<polygon fill="none" stroke="#373431" stroke-width="12" stroke-linecap="round" stroke-linejoin="round" stroke-miterlimit="10" points="
		336.673,589.074 354.324,602.367 371.964,589.086 354.324,602.367 	"/>
	
		<polygon fill="none" stroke="#373431" stroke-width="12" stroke-linecap="round" stroke-linejoin="round" stroke-miterlimit="10" points="
		389.615,106.33 354.35,132.881 319.046,106.306 354.35,132.881 	"/>
	
		<polygon fill="none" stroke="#373431" stroke-width="12" stroke-linecap="round" stroke-linejoin="round" stroke-miterlimit="10" points="
		371.964,84.174 354.324,97.443 336.673,84.162 354.324,97.443 	"/>
	
		<polygon fill="none" stroke="#373431" stroke-width="12" stroke-linecap="round" stroke-linejoin="round" stroke-miterlimit="10" points="
		389.615,141.755 354.35,168.318 319.046,141.731 354.35,168.318 	"/>
	
		<polygon fill="none" stroke="#373431" stroke-width="12" stroke-linecap="round" stroke-linejoin="round" stroke-miterlimit="10" points="
		389.615,177.192 354.35,203.743 319.046,177.168 354.35,203.743 	"/>
	
		<polygon fill="none" stroke="#373431" stroke-width="12" stroke-linecap="round" stroke-linejoin="round" stroke-miterlimit="10" points="
		371.964,225.899 354.35,239.168 336.673,225.887 354.35,239.168 	"/>
	
		<polygon fill="none" stroke="#373431" stroke-width="12" stroke-linecap="round" stroke-linejoin="round" stroke-miterlimit="10" points="
		380.777,254.696 354.35,274.605 327.859,254.671 354.35,274.605 	"/>
	
		<polygon fill="none" stroke="#373431" stroke-width="12" stroke-linecap="round" stroke-linejoin="round" stroke-miterlimit="10" points="
		376.358,373.166 354.35,389.768 332.278,373.154 354.35,389.768 	"/>
	
		<polygon fill="none" stroke="#373431" stroke-width="12" stroke-linecap="round" stroke-linejoin="round" stroke-miterlimit="10" points="
		376.358,408.604 354.35,425.193 332.278,408.592 354.35,425.193 	"/>
	
		<polygon fill="none" stroke="#373431" stroke-width="12" stroke-linecap="round" stroke-linejoin="round" stroke-miterlimit="10" points="
		449.626,412.498 405.998,406.224 399.748,362.388 405.998,406.224 	"/>
	
		<polygon fill="none" stroke="#373431" stroke-width="12" stroke-linecap="round" stroke-linejoin="round" stroke-miterlimit="10" points="
		501.14,390.391 463.225,367.819 474.162,324.911 463.225,367.819 	"/>
	
		<polygon fill="none" stroke="#373431" stroke-width="12" stroke-linecap="round" stroke-linejoin="round" stroke-miterlimit="10" points="
		609.174,410.715 598.235,367.819 636.199,345.261 598.235,367.819 	"/>
	
		<polygon fill="none" stroke="#373431" stroke-width="12" stroke-linecap="round" stroke-linejoin="round" stroke-miterlimit="10" points="
		529.119,387.302 496.33,357.761 515.373,317.807 496.33,357.761 	"/>
	
		<polygon fill="none" stroke="#373431" stroke-width="12" stroke-linecap="round" stroke-linejoin="round" stroke-miterlimit="10" points="
		474.309,398.899 432.73,384.201 435.123,339.975 432.73,384.201 	"/>
	
		<polygon fill="none" stroke="#373431" stroke-width="12" stroke-linecap="round" stroke-linejoin="round" stroke-miterlimit="10" points="
		584.197,397.679 565.154,357.749 597.991,328.183 565.154,357.749 	"/>
	
		<polygon fill="none" stroke="#373431" stroke-width="12" stroke-linecap="round" stroke-linejoin="round" stroke-miterlimit="10" points="
		151.466,389.768 177.906,354.355 151.442,318.905 177.906,354.355 	"/>
	
		<polygon fill="none" stroke="#373431" stroke-width="12" stroke-linecap="round" stroke-linejoin="round" stroke-miterlimit="10" points="
		259.012,412.498 302.64,406.224 308.89,362.388 302.64,406.224 	"/>
	
		<polygon fill="none" stroke="#373431" stroke-width="12" stroke-linecap="round" stroke-linejoin="round" stroke-miterlimit="10" points="
		207.497,390.391 245.412,367.819 234.475,324.911 245.412,367.819 	"/>
	
		<polygon fill="none" stroke="#373431" stroke-width="12" stroke-linecap="round" stroke-linejoin="round" stroke-miterlimit="10" points="
		99.488,410.715 110.401,367.819 72.437,345.261 110.401,367.819 	"/>
	
		<polygon fill="none" stroke="#373431" stroke-width="12" stroke-linecap="round" stroke-linejoin="round" stroke-miterlimit="10" points="
		179.518,387.302 212.331,357.761 193.264,317.807 212.331,357.761 	"/>
	
		<polygon fill="none" stroke="#373431" stroke-width="12" stroke-linecap="round" stroke-linejoin="round" stroke-miterlimit="10" points="
		234.328,398.899 275.906,384.201 273.514,339.975 275.906,384.201 	"/>
	
		<polygon fill="none" stroke="#373431" stroke-width="12" stroke-linecap="round" stroke-linejoin="round" stroke-miterlimit="10" points="
		124.439,397.679 143.483,357.749 110.646,328.183 143.483,357.749 	"/>
	
		<polygon fill="none" stroke="#373431" stroke-width="12" stroke-linecap="round" stroke-linejoin="round" stroke-miterlimit="10" points="
		449.626,270.761 405.998,264.498 399.748,220.638 405.998,264.498 	"/>
	
		<polygon fill="none" stroke="#373431" stroke-width="12" stroke-linecap="round" stroke-linejoin="round" stroke-miterlimit="10" points="
		501.14,248.666 463.225,226.095 474.162,183.174 463.225,226.095 	"/>
	
		<polygon fill="none" stroke="#373431" stroke-width="12" stroke-linecap="round" stroke-linejoin="round" stroke-miterlimit="10" points="
		474.309,257.162 432.73,242.464 435.123,198.226 432.73,242.464 	"/>
	
		<polygon fill="none" stroke="#373431" stroke-width="12" stroke-linecap="round" stroke-linejoin="round" stroke-miterlimit="10" points="
		259.012,270.761 302.64,264.498 308.89,220.638 302.64,264.498 	"/>
	
		<polygon fill="none" stroke="#373431" stroke-width="12" stroke-linecap="round" stroke-linejoin="round" stroke-miterlimit="10" points="
		207.497,248.666 245.412,226.095 234.475,183.174 245.412,226.095 	"/>
	
		<polygon fill="none" stroke="#373431" stroke-width="12" stroke-linecap="round" stroke-linejoin="round" stroke-miterlimit="10" points="
		234.328,257.162 275.906,242.464 273.514,198.226 275.906,242.464 	"/>
	<path fill="none" stroke="#373431" stroke-width="12" stroke-linecap="round" stroke-linejoin="round" stroke-miterlimit="10" d="
		M655.512,406.224c-31.934-32.081-76.051-51.893-124.758-51.893h-0.023c-97.438,0-176.406,79.31-176.406,177.174l0,0
		c0-97.864-78.98-177.174-176.441-177.174c-48.707,0-92.799,19.812-124.733,51.893c31.934-32.081,76.026-51.893,124.733-51.893
		c97.461,0,176.441,79.31,176.441,177.174l0,0c0-97.864,78.969-177.174,176.406-177.174h0.023
		C579.461,354.331,623.578,374.143,655.512,406.224z"/>
</g>
</svg>
